# xmcd
#
# Track frame offsets:
#  150
#  10680
#  21890
#  35142
#  47172
#  59932
#  71470
#  84662
#  96867
#  107157
#  122485
#  135707
#  144807
#  157917
#
# Disc length: 2206 seconds
#
# Revision: 2
# Processed by: cddbd v1.5.2PL0 Copyright (c) Steve Scherf et al.
# Submitted via: Collectorz.com Music Collector 6.9
#
DISCID=bc089c0e
DTITLE=Carl Perkins - Blue Suede Shoes
DYEAR=1900
DGENRE=Rock and Roll
TTITLE0=Blue Suede Shoes
TTITLE1=Dixie Fried
TTITLE2=Boppin'the Blues
TTITLE3=I'm Sorry I'm Not Sorry
TTITLE4=Your True Love
TTITLE5=Pink Peddle Pushers
TTITLE6=Put Your Cat Clothes on
TTITLE7=Perkins Wiggle
TTITLE8=Matchbox
TTITLE9=Only You
TTITLE10=Let the Jukebox Keep Playing
TTITLE11=Lend Me Your Comb
TTITLE12=Honey Don't
TTITLE13=Glad All Over
EXTD=
EXTT0=
EXTT1=
EXTT2=
EXTT3=
EXTT4=
EXTT5=
EXTT6=
EXTT7=
EXTT8=
EXTT9=
EXTT10=
EXTT11=
EXTT12=
EXTT13=
PLAYORDER=
